<svg width="131" height="122" viewBox="0 0 131 122" fill="none" xmlns="http://www.w3.org/2000/svg">
<path d="M114.851 121.204L16.0878 121.204C7.3581 121.204 0.191895 114.797 0.191895 106.992L0.191895 18.6919C0.191895 10.887 7.3581 4.47998 16.0878 4.47998L114.851 4.47998C123.581 4.47998 130.747 10.887 130.747 18.6919L130.747 106.992C130.747 114.797 123.581 121.204 114.851 121.204ZM16.0878 10.3045C10.8761 10.3045 6.70663 14.0323 6.70663 18.6919L6.70663 106.992C6.70663 111.652 10.8761 115.38 16.0878 115.38L114.851 115.38C120.063 115.38 124.232 111.652 124.232 106.992L124.232 18.6919C124.232 14.0323 120.063 10.3045 114.851 10.3045L16.0878 10.3045Z" fill="#FB4B1E"></path>
<path d="M37.845 18.839C36.0209 18.839 34.5876 17.9372 34.5876 16.7895L34.5876 2.93487C34.5876 1.78716 36.0209 0.885376 37.845 0.885376C39.6691 0.885376 41.1024 1.78716 41.1024 2.93487L41.1024 16.7895C41.1024 17.9372 39.6691 18.839 37.845 18.839Z" fill="#FB4B1E"></path>
<path d="M92.5662 18.839C90.7421 18.839 89.3088 17.9372 89.3088 16.7895L89.3088 2.93487C89.3088 1.78716 90.7421 0.885376 92.5662 0.885376C94.3903 0.885376 95.8236 1.78716 95.8236 2.93487L95.8236 16.7895C95.8236 17.9372 94.3903 18.839 92.5662 18.839Z" fill="#FB4B1E"></path>
<path d="M127.62 37.3287L3.44926 37.3287C1.62514 37.3287 0.191895 36.0473 0.191895 34.4164C0.191895 32.7856 1.62514 31.5042 3.44926 31.5042L127.62 31.5042C129.444 31.5042 130.877 32.7856 130.877 34.4164C130.877 36.0473 129.444 37.3287 127.62 37.3287Z" fill="#FB4B1E"></path>
</svg>
