<svg width="423" height="226" viewBox="0 0 423 226" fill="none" xmlns="http://www.w3.org/2000/svg">
<path d="M2.31822 42.6972C-0.0586737 45.0061 -0.113793 48.8046 2.1951 51.1816C4.50399 53.5585 8.30258 53.6136 10.6795 51.3047L2.31822 42.6972ZM383.904 224.434C386.67 226.259 390.391 225.497 392.217 222.731L421.96 177.661C423.786 174.895 423.023 171.173 420.257 169.348C417.492 167.523 413.77 168.285 411.945 171.051L385.506 211.113L345.444 184.675C342.678 182.849 338.956 183.612 337.131 186.378C335.306 189.143 336.068 192.865 338.834 194.69L383.904 224.434ZM10.6795 51.3047C52.1795 10.992 133.831 0.953042 211.495 27.9105C288.671 54.6986 360.218 117.568 381.331 220.63L393.087 218.222C370.99 110.358 295.931 44.5163 215.43 16.574C135.417 -11.199 48.3189 -1.98745 2.31822 42.6972L10.6795 51.3047Z" fill="#5F26D9"></path>
</svg>
