<svg width="256" height="187" viewBox="0 0 256 187" fill="none" xmlns="http://www.w3.org/2000/svg">
<path d="M50.3223 0.458961C37.7572 0.458961 28.5429 3.25119 22.5396 8.97526C16.5363 14.6993 13.4648 22.0987 13.4648 31.1735H4.11088V50.5795H13.4648V97.07C13.4648 103.911 12.9064 108.518 11.6499 110.612C10.3934 112.707 7.46155 113.684 2.57515 113.684C1.8771 113.684 1.31865 113.684 0.899817 113.544V132.392C2.71477 132.811 4.66932 133.229 6.7635 133.509C9.97456 133.648 12.6272 133.788 14.861 133.788C21.5623 133.648 27.0071 131.414 31.3351 127.226C35.5234 122.898 37.6176 116.895 37.6176 109.216V50.5795H55.6275V31.1735H37.6176C37.6176 26.8455 38.7345 23.7741 40.8287 22.0987C42.9228 20.563 46.1339 19.7253 50.3223 19.7253C54.6502 19.7253 57.8613 20.8422 59.9554 23.076C62.0496 25.4494 63.0269 30.1962 63.0269 37.3164V107.122H87.0401V30.3358C87.0401 25.0306 85.9232 20.2838 83.829 16.2351C81.7348 12.1863 78.803 9.11487 75.1731 6.88109C71.4036 4.78692 67.4945 3.11158 63.4457 1.99469C59.2574 1.01741 54.9294 0.458961 50.3223 0.458961ZM171.614 75.8491L171.754 70.6835C171.754 58.5373 168.543 48.6249 161.981 41.0859C155.419 33.5469 146.344 29.7774 134.757 29.7774C123.448 29.7774 114.094 33.5469 106.695 41.0859C99.2953 48.7645 95.6654 58.1185 95.6654 69.1478C95.6654 80.1771 99.2953 89.531 106.695 97.07C114.094 104.609 123.448 108.379 134.757 108.379C142.156 108.379 148.997 106.982 155 104.051C161.004 101.258 165.75 97.3493 169.241 92.3233L154.163 79.8978C152.348 82.5505 149.835 84.7842 146.624 86.4596C143.413 88.2745 140.341 89.1122 137.27 89.1122C133.081 89.1122 129.451 87.9953 126.38 85.6219C123.308 83.3881 121.075 80.1771 119.679 75.8491H171.614ZM119.679 61.888C120.656 57.9789 122.471 54.7678 125.123 52.2548C127.776 49.7418 130.987 48.4853 134.757 48.4853C139.922 48.4853 143.692 49.8814 145.786 52.534C147.88 55.3262 148.997 58.3977 148.997 61.888H119.679ZM208.908 88.1349L222.59 107.122H248.418L222.171 68.0309L247.999 31.1735H221.333L208.908 49.8814L196.482 31.1735H169.677L195.505 68.0309L169.258 107.122H194.947L208.908 88.1349ZM34.4224 127.63V144.511C30.9581 141.865 26.738 140.542 21.7621 140.542C16.9121 140.542 12.755 142.18 9.29069 145.518C5.82642 148.857 4.12578 153.014 4.12578 157.99C4.12578 162.84 5.82642 166.997 9.29069 170.335C12.755 173.736 16.9121 175.437 21.7621 175.437C26.864 175.437 31.0841 174.051 34.4224 171.343V175.122H38.0126V127.63H34.4224ZM22.203 172.099C18.1718 172.099 14.7705 170.713 11.9361 168.005C9.10173 165.296 7.65303 161.958 7.65303 157.99C7.65303 154.022 9.10173 150.683 11.9361 147.912C14.7705 145.203 18.1718 143.818 22.203 143.818C27.1789 143.818 31.273 145.266 34.4224 148.227V167.564C31.336 170.587 27.2419 172.099 22.203 172.099ZM80.5252 158.242C80.5252 153.014 79.0765 148.731 76.1161 145.455C73.1558 142.18 69.1246 140.542 64.1487 140.542C59.1097 140.542 54.9526 142.243 51.7403 145.581C48.465 148.92 46.8273 153.077 46.8273 157.99C46.8273 162.84 48.465 166.997 51.7403 170.335C54.9526 173.673 59.1097 175.374 64.1487 175.374C67.298 175.374 70.1954 174.807 72.8408 173.61C75.4233 172.414 77.5648 170.839 79.1395 168.76L76.683 166.745C75.3603 168.445 73.5967 169.768 71.5181 170.713C69.3766 171.658 67.109 172.099 64.6526 172.099C60.9993 172.099 57.85 170.902 55.1416 168.445C52.4331 166.052 50.8585 162.966 50.4176 159.249H80.5252V158.242ZM64.1487 143.566C67.9908 143.566 71.0142 144.762 73.2817 147.093C75.5492 149.423 76.809 152.51 76.9979 156.352H50.4176C50.7325 152.699 52.1812 149.675 54.7007 147.219C57.2201 144.762 60.3695 143.566 64.1487 143.566ZM89.5205 175.122H93.1107V127.63H89.5205V175.122ZM104.238 175.122H107.828V141.172H104.238V175.122ZM106.001 134.622C106.694 134.622 107.261 134.37 107.765 133.866C108.206 133.425 108.458 132.858 108.458 132.165C108.458 131.472 108.206 130.842 107.765 130.339C107.261 129.898 106.694 129.646 106.001 129.646C105.308 129.646 104.742 129.898 104.301 130.339C103.797 130.842 103.545 131.472 103.545 132.165C103.545 132.858 103.797 133.425 104.301 133.866C104.742 134.37 105.308 134.622 106.001 134.622ZM146.603 141.172L132.935 169.264L119.204 141.172H115.299L131.99 175.122H133.88L150.508 141.172H146.603ZM187.366 158.242C187.366 153.014 185.918 148.731 182.957 145.455C179.997 142.18 175.966 140.542 170.99 140.542C165.951 140.542 161.794 142.243 158.581 145.581C155.306 148.92 153.669 153.077 153.669 157.99C153.669 162.84 155.306 166.997 158.581 170.335C161.794 173.673 165.951 175.374 170.99 175.374C174.139 175.374 177.037 174.807 179.682 173.61C182.264 172.414 184.406 170.839 185.981 168.76L183.524 166.745C182.201 168.445 180.438 169.768 178.359 170.713C176.218 171.658 173.95 172.099 171.494 172.099C167.841 172.099 164.691 170.902 161.983 168.445C159.274 166.052 157.7 162.966 157.259 159.249H187.366V158.242ZM170.99 143.566C174.832 143.566 177.855 144.762 180.123 147.093C182.39 149.423 183.65 152.51 183.839 156.352H157.259C157.574 152.699 159.022 149.675 161.542 147.219C164.061 144.762 167.211 143.566 170.99 143.566ZM199.889 141.172H196.299V175.122H199.889V157.612C199.889 153.833 200.897 150.683 202.849 148.101C204.802 145.518 207.447 144.259 210.66 144.259C212.36 144.259 214.124 144.637 215.888 145.392L216.391 141.739C214.817 140.92 213.116 140.542 211.29 140.542C208.644 140.542 206.377 141.235 204.424 142.684C202.471 144.133 200.96 146.085 199.889 148.605V141.172ZM251.575 141.172L239.734 170.965H238.348L224.869 141.172H221.027L236.27 175.122H237.97C235.829 180.917 230.79 183.814 222.853 183.814H222.098L221.783 186.775C224.239 186.775 226.129 186.712 227.452 186.523C230.475 186.082 233.246 185.074 235.703 183.499C238.159 181.862 239.923 179.657 240.994 176.949L255.355 141.172H251.575Z" fill="white"/>
</svg>
