<svg width="203" height="183" viewBox="0 0 203 183" fill="none" xmlns="http://www.w3.org/2000/svg">
<path d="M198.874 4.65773C198.038 1.45099 194.762 -0.471548 191.555 0.36361C188.348 1.19877 186.426 4.47537 187.261 7.68211L198.874 4.65773ZM3.20352 130.038C0.636871 132.134 0.255303 135.913 2.35125 138.48L36.5067 180.306C38.6027 182.873 42.3825 183.254 44.9491 181.158C47.5157 179.062 47.8973 175.282 45.8014 172.716L15.4409 135.537L52.6195 105.177C55.1861 103.081 55.5677 99.3011 53.4718 96.7344C51.3758 94.1678 47.596 93.7862 45.0294 95.8821L3.20352 130.038ZM187.261 7.68211C196.497 43.1462 181.974 75.9737 149.863 98.9074C117.588 121.958 67.6356 134.776 7.60122 128.715L6.39592 140.655C68.5836 146.933 121.644 133.807 156.837 108.673C192.194 83.4213 209.594 45.8221 198.874 4.65773L187.261 7.68211Z" fill="#5F26D9"/>
</svg>
