<svg width="373" height="334" viewBox="0 0 373 334" fill="none" xmlns="http://www.w3.org/2000/svg">
<path d="M3.00762 5.00281C3.64721 1.75142 6.80148 -0.365869 10.0529 0.273711C13.3043 0.91329 15.4216 4.06756 14.782 7.31895L3.00762 5.00281ZM369.54 278.166C372.289 280.016 373.018 283.745 371.169 286.494L341.023 331.296C339.174 334.046 335.445 334.775 332.696 332.925C329.947 331.075 329.217 327.347 331.067 324.598L357.863 284.773L318.038 257.977C315.289 256.128 314.56 252.399 316.41 249.65C318.26 246.901 321.988 246.171 324.737 248.021L369.54 278.166ZM14.782 7.31895C9.25688 35.4063 16.7547 68.4507 34.6387 102.096C52.4801 135.661 80.3857 169.282 114.718 198.222C183.525 256.223 276.942 294.485 365.039 277.256L367.342 289.033C274.471 307.196 177.469 266.813 106.984 207.397C71.6693 177.629 42.7107 142.849 24.0426 107.728C5.4172 72.6882 -3.23981 36.7622 3.00762 5.00281L14.782 7.31895Z" fill="#5F26D9"/>
</svg>
